<svg width="1440" height="980" viewBox="0 0 1440 980" fill="none" xmlns="http://www.w3.org/2000/svg">
  <rect width="1440" height="980" fill="#F7F5EF"/>
  <circle cx="1170" cy="120" r="340" fill="#DDF7F3" opacity=".38"/>
  <circle cx="340" cy="360" r="280" fill="#FFE3B0" opacity=".2"/>
  <text x="70" y="86" fill="#137F74" font-family="Inter, Arial, sans-serif" font-size="28" font-weight="850">Sounds of World demo posters</text>
  <text x="70" y="138" fill="#17211B" font-family="Inter, Arial, sans-serif" font-size="54" font-weight="900" letter-spacing="-2.4">Kaliningrad journal assets</text>

  <g filter="url(#shadow)">
    <rect x="70" y="190" width="615" height="346" rx="34" fill="#FFFFFF" stroke="#DFE4DD" stroke-width="2"/>
    <image href="./kaliningrad-city-hero.svg" x="90" y="210" width="575" height="324" preserveAspectRatio="xMidYMid slice"/>
  </g>
  <g filter="url(#shadow)">
    <rect x="755" y="190" width="615" height="346" rx="34" fill="#FFFFFF" stroke="#DFE4DD" stroke-width="2"/>
    <image href="./kant-cathedral-bells-hero.svg" x="775" y="210" width="575" height="324" preserveAspectRatio="xMidYMid slice"/>
  </g>

  <g filter="url(#shadow)">
    <rect x="70" y="610" width="190" height="190" rx="36" fill="#FFFFFF" stroke="#DFE4DD" stroke-width="2"/>
    <image href="./kant-cathedral-bells-poster.svg" x="82" y="622" width="166" height="166" preserveAspectRatio="xMidYMid slice"/>
    <text x="70" y="846" fill="#17211B" font-family="Inter, Arial, sans-serif" font-size="20" font-weight="850">Kant Cathedral</text>
  </g>
  <g filter="url(#shadow)">
    <rect x="320" y="610" width="190" height="190" rx="36" fill="#FFFFFF" stroke="#DFE4DD" stroke-width="2"/>
    <image href="./pregolya-river-evening-poster.svg" x="332" y="622" width="166" height="166" preserveAspectRatio="xMidYMid slice"/>
    <text x="320" y="846" fill="#17211B" font-family="Inter, Arial, sans-serif" font-size="20" font-weight="850">Pregolya River</text>
  </g>
  <g filter="url(#shadow)">
    <rect x="570" y="610" width="190" height="190" rx="36" fill="#FFFFFF" stroke="#DFE4DD" stroke-width="2"/>
    <image href="./amber-coast-morning-poster.svg" x="582" y="622" width="166" height="166" preserveAspectRatio="xMidYMid slice"/>
    <text x="570" y="846" fill="#17211B" font-family="Inter, Arial, sans-serif" font-size="20" font-weight="850">Amber Coast</text>
  </g>
  <g filter="url(#shadow)">
    <rect x="820" y="610" width="190" height="190" rx="36" fill="#FFFFFF" stroke="#DFE4DD" stroke-width="2"/>
    <image href="./old-town-rain-tram-poster.svg" x="832" y="622" width="166" height="166" preserveAspectRatio="xMidYMid slice"/>
    <text x="820" y="846" fill="#17211B" font-family="Inter, Arial, sans-serif" font-size="20" font-weight="850">Rain Tram</text>
  </g>

  <g filter="url(#shadow)">
    <rect x="1080" y="606" width="290" height="198" rx="34" fill="#FFFFFF" stroke="#DFE4DD" stroke-width="2"/>
    <text x="1110" y="662" fill="#137F74" font-family="Inter, Arial, sans-serif" font-size="18" font-weight="850">Formats</text>
    <text x="1110" y="706" fill="#17211B" font-family="Inter, Arial, sans-serif" font-size="26" font-weight="900">1600×900 hero</text>
    <text x="1110" y="746" fill="#17211B" font-family="Inter, Arial, sans-serif" font-size="26" font-weight="900">960×960 tile</text>
    <text x="1110" y="780" fill="#69736D" font-family="Inter, Arial, sans-serif" font-size="18" font-weight="750">dominant_color in JSON</text>
  </g>

  <defs>
    <filter id="shadow" x="-20%" y="-20%" width="140%" height="140%" color-interpolation-filters="sRGB">
      <feDropShadow dx="0" dy="18" stdDeviation="28" flood-color="#17211B" flood-opacity=".1"/>
    </filter>
  </defs>
</svg>
